<svg xmlns="http://www.w3.org/2000/svg" viewBox="0 0 32 32" width="32" height="32">
  <rect width="32" height="32" rx="6" fill="#0a0a0a"/>
  <g transform="translate(0, 2)">
    <!-- Claws -->
    <rect x="2" y="4" width="4" height="4" fill="#ff6b35"/>
    <rect x="0" y="0" width="4" height="4" fill="#ff6b35"/>
    <rect x="26" y="4" width="4" height="4" fill="#ff6b35"/>
    <rect x="28" y="0" width="4" height="4" fill="#ff6b35"/>
    <!-- Head -->
    <rect x="10" y="2" width="12" height="4" fill="#ff6b35"/>
    <!-- Body -->
    <rect x="6" y="6" width="20" height="8" fill="#ff6b35"/>
    <rect x="10" y="14" width="12" height="4" fill="#ff6b35"/>
    <rect x="12" y="18" width="8" height="4" fill="#e65100"/>
    <!-- Eyes -->
    <rect x="10" y="8" width="4" height="4" fill="#111"/>
    <rect x="18" y="8" width="4" height="4" fill="#111"/>
    <!-- Eye shine -->
    <rect x="10" y="8" width="2" height="2" fill="rgba(255,255,255,0.5)"/>
    <rect x="18" y="8" width="2" height="2" fill="rgba(255,255,255,0.5)"/>
    <!-- Legs -->
    <rect x="8" y="22" width="4" height="4" fill="#e65100"/>
    <rect x="14" y="22" width="4" height="4" fill="#e65100"/>
    <rect x="20" y="22" width="4" height="4" fill="#e65100"/>
  </g>
</svg>
